<?xml version="1.0" standalone="no"?>
<!DOCTYPE svg PUBLIC "-//W3C//DTD SVG 20010904//EN"
 "http://www.w3.org/TR/2001/REC-SVG-20010904/DTD/svg10.dtd">
<svg version="1.0" xmlns="http://www.w3.org/2000/svg"
 width="657.000000pt" height="380.000000pt" viewBox="0 0 657.000000 380.000000"
 preserveAspectRatio="xMidYMid meet">

<g transform="translate(0.000000,380.000000) scale(0.100000,-0.100000)"
fill="#000000" stroke="none">
<path d="M4550 3639 c-24 -11 -52 -27 -60 -34 -14 -13 -38 -13 -156 -4 -76 7
-319 12 -539 12 -422 1 -660 -12 -973 -54 -85 -11 -159 -18 -165 -16 -6 2 15
11 46 21 110 34 47 30 -78 -6 -175 -50 -310 -142 -714 -487 -30 -25 -58 -45
-63 -43 -4 1 -7 -1 -6 -5 4 -12 -23 -45 -60 -75 -20 -17 -28 -29 -21 -34 6 -3
117 -8 247 -9 161 -2 204 -1 135 4 -115 8 -147 20 -57 22 32 1 70 5 84 9 22 7
21 8 -13 9 l-38 1 15 28 c39 76 185 203 337 293 93 55 217 99 302 106 83 7 84
4 23 -110 -25 -45 -69 -129 -98 -187 l-53 -105 -105 -6 c-98 -5 -93 -5 60 -7
171 -2 237 -10 233 -30 -2 -9 108 -11 441 -9 532 2 556 -2 294 -56 -97 -20
-142 -33 -123 -36 19 -2 -30 -16 -130 -36 -145 -29 -375 -91 -433 -115 -26
-11 -62 2 -62 24 0 29 -766 42 -1083 18 -211 -16 -413 -44 -630 -88 -82 -17
-90 -17 -115 -2 -38 23 -38 39 3 82 30 32 32 36 12 31 -88 -26 -144 -74 -179
-153 l-20 -44 -73 3 c-41 2 -77 1 -80 -3 -8 -7 59 -28 90 -28 11 0 27 -5 35
-10 13 -9 11 -13 -10 -30 -14 -11 -34 -20 -45 -20 -33 0 -64 -27 -58 -50 3
-12 0 -20 -7 -20 -7 0 -10 6 -7 14 3 8 0 20 -8 26 -10 9 -16 7 -23 -7 -5 -10
-7 -25 -5 -33 3 -9 0 -8 -7 3 -7 10 -9 26 -6 35 4 9 -5 4 -18 -13 -14 -16 -25
-36 -26 -42 0 -7 -4 -13 -10 -13 -13 0 -13 36 0 61 6 10 8 19 6 19 -3 0 -15
-19 -27 -41 -16 -31 -19 -50 -14 -78 4 -20 9 -54 10 -76 2 -22 20 -89 40 -150
74 -221 82 -227 330 -259 439 -56 948 -54 1434 5 254 31 297 50 496 225 127
112 194 163 250 191 78 40 395 129 395 111 0 -6 9 -8 21 -5 13 4 19 1 16 -6
-2 -7 5 -13 17 -14 11 -1 51 -8 87 -16 40 -8 74 -11 88 -5 13 4 27 5 32 2 11
-6 67 30 90 59 16 20 46 21 94 2 14 -5 10 1 -10 19 -16 14 -24 25 -17 26 7 0
10 4 7 10 -3 6 1 7 9 4 9 -3 16 -1 16 5 0 11 99 129 167 200 18 18 31 37 28
41 -2 4 14 10 38 13 94 14 147 36 169 73 11 19 26 34 34 34 8 0 28 10 44 22
16 12 31 20 34 17 2 -2 -3 -38 -10 -79 -29 -151 -29 -147 -4 -155 30 -9 34 -2
41 68 l6 62 1 -72 c2 -70 3 -72 30 -75 15 -2 -15 -7 -66 -12 -63 -6 -95 -13
-99 -22 -2 -7 7 -29 22 -49 l27 -35 84 0 c94 0 107 9 94 66 -7 28 -5 34 9 34
9 0 22 -5 29 -12 9 -9 12 -9 12 0 0 7 6 12 14 12 8 0 25 13 38 28 20 24 29 27
65 24 23 -2 50 1 60 7 15 9 10 11 -27 12 -25 1 -50 1 -56 0 -7 -1 -14 11 -17
26 -7 36 0 43 11 13 6 -17 11 -20 17 -10 7 11 -16 34 -36 35 -3 0 -20 15 -39
33 -22 23 -30 36 -23 43 23 23 246 31 668 25 237 -4 476 -9 533 -12 139 -8
151 -4 148 45 -2 48 -26 85 -155 239 -157 189 -268 265 -501 347 -194 67 -294
89 -415 89 -103 1 -113 -1 -157 -27 -41 -24 -53 -39 -87 -110 -39 -83 -86
-237 -116 -382 -41 -199 -56 -248 -70 -226 -4 7 3 35 15 63 15 36 21 63 17 90
-3 21 -1 53 4 71 4 18 11 60 13 95 3 35 15 93 26 130 12 37 23 94 26 127 7 67
22 124 53 203 l21 52 -21 0 c-27 0 -15 17 24 34 l32 14 -40 1 c-22 0 -60 -9
-85 -20z m-1981 -145 c-13 -15 -40 -37 -59 -49 -19 -13 -48 -36 -65 -52 -16
-15 -52 -46 -80 -68 -27 -21 -86 -71 -130 -109 -44 -39 -71 -60 -60 -47 40 47
133 132 251 228 150 121 193 151 143 97z m723 -175 c43 -12 78 -25 78 -29 0
-4 -36 -10 -79 -13 -153 -12 -182 -42 -189 -194 l-4 -93 -59 0 c-32 0 -60 4
-63 8 -6 10 73 195 107 249 32 50 82 93 110 93 11 0 56 -9 99 -21z m2148 -210
c44 -17 87 -37 95 -45 18 -19 67 -176 57 -185 -4 -4 -61 -4 -127 0 l-119 6 -1
70 c0 84 -18 124 -62 145 -51 24 -42 40 22 40 38 0 81 -10 135 -31z m-1730
-106 c0 -14 -75 -19 -84 -5 -3 5 0 28 6 52 l11 44 34 -39 c18 -21 33 -44 33
-52z m1374 65 c23 -10 63 -56 54 -62 -2 -1 -19 1 -38 5 -19 3 -27 7 -17 8 25
2 21 16 -10 40 -31 23 -27 27 11 9z m-44 -67 c-19 -11 -270 -29 -270 -19 0 6
72 14 195 21 28 2 59 4 70 5 16 1 17 0 5 -7z m-356 -17 c13 -5 14 -9 5 -20
-13 -16 -29 -9 -29 12 0 16 2 16 24 8z m-351 -24 c-4 -4 -24 -11 -43 -14 l-35
-7 22 20 c21 18 76 19 56 1z m827 -11 c0 -15 -7 -19 -37 -19 -34 1 -36 2 -18
12 11 6 24 17 28 25 11 18 27 7 27 -18z m-1492 -96 c-10 -2 -26 -2 -35 0 -10
3 -2 5 17 5 19 0 27 -2 18 -5z m-75 -10 c-7 -2 -21 -2 -30 0 -10 3 -4 5 12 5
17 0 24 -2 18 -5z m-70 -10 c-7 -2 -19 -2 -25 0 -7 3 -2 5 12 5 14 0 19 -2 13
-5z m787 -23 c0 -21 -34 -57 -59 -64 -79 -21 -270 -50 -278 -42 -3 3 2 6 11 6
12 0 16 5 12 15 -4 10 3 17 22 21 15 3 47 12 71 20 25 8 54 14 67 14 12 0 39
8 60 17 22 9 50 15 63 14 15 -2 21 1 17 8 -4 6 -2 11 3 11 6 0 11 -9 11 -20z
m-482 -47 c2 -9 -6 -11 -30 -7 -50 10 -60 26 -14 22 22 -2 41 -9 44 -15z
m-2063 -82 c3 -5 1 -12 -4 -15 -5 -4 -12 -2 -16 4 -9 14 -27 2 -19 -13 3 -7
-1 -4 -8 5 -9 11 -19 14 -28 8 -11 -7 -11 -11 -1 -24 12 -14 10 -16 -8 -16
-28 0 -27 25 1 44 25 18 74 21 83 7z m1865 -116 c16 -19 4 -67 -23 -93 -20
-18 -295 -108 -304 -99 -11 12 44 38 125 60 51 14 104 32 117 41 24 16 43 61
31 73 -6 6 -345 -11 -636 -32 -112 -9 -189 -10 -194 -5 -15 15 7 18 249 35
127 9 282 20 345 24 196 14 276 13 290 -4z m-1090 -53 c0 -5 -240 -12 -532
-15 -767 -10 -1114 -9 -1102 3 11 11 216 14 1067 18 312 1 567 -2 567 -6z
m-912 -96 c36 -19 78 -65 91 -99 6 -16 10 -54 10 -85 l-2 -57 -7 66 c-11 114
-70 179 -159 179 -170 0 -258 -249 -129 -365 44 -40 35 -48 -10 -10 -49 41
-76 107 -69 171 12 120 100 214 199 214 27 0 61 -6 76 -14z m1572 -13 c0 -17
-11 -17 -46 2 l-29 15 38 -2 c23 -1 37 -6 37 -15z m-1633 -85 l2 -83 57 -53
c32 -29 64 -50 71 -48 11 5 11 1 2 -17 -8 -14 -14 -17 -17 -9 -5 15 -114 72
-139 72 -10 0 -45 -14 -77 -30 -32 -17 -61 -28 -64 -25 -3 2 22 29 55 59 53
49 61 62 73 113 13 59 27 103 33 103 2 0 4 -37 4 -82z m1333 -45 c-1 -19 -18
-33 -33 -27 -18 6 -21 16 -10 27 9 9 43 9 43 0z m-1570 -13 c0 -6 -93 -10
-259 -10 -142 0 -273 -3 -290 -6 -19 -4 -31 -2 -31 4 0 13 79 17 378 20 129 1
202 -2 202 -8z m1246 2 c-5 -9 -776 -6 -784 3 -3 3 173 5 392 5 218 0 395 -4
392 -8z m199 -47 c0 -15 -8 -20 -32 -22 -26 -2 -33 1 -33 15 0 25 4 28 37 27
21 0 28 -5 28 -20z m-1450 -25 c4 -7 -89 -9 -272 -8 l-278 2 215 6 c118 3 241
7 272 8 31 1 60 -2 63 -8z m1200 0 c4 -7 -122 -10 -370 -10 -248 0 -374 3
-370 10 4 6 138 10 370 10 232 0 366 -4 370 -10z m-1018 -176 c-3 -3 -12 -4
-19 -1 -8 3 -5 6 6 6 11 1 17 -2 13 -5z"/>
<path d="M1783 3008 c-12 -18 -21 -34 -18 -36 7 -7 64 42 64 56 1 23 -24 12
-46 -20z"/>
<path d="M2308 2953 c23 -2 61 -2 85 0 23 2 4 4 -43 4 -47 0 -66 -2 -42 -4z"/>
<path d="M1628 2903 c6 -2 18 -2 25 0 6 3 1 5 -13 5 -14 0 -19 -2 -12 -5z"/>
<path d="M3388 2823 c7 -3 16 -2 19 1 4 3 -2 6 -13 5 -11 0 -14 -3 -6 -6z"/>
<path d="M5319 2768 c15 -37 101 -183 101 -171 0 18 -22 64 -63 131 -40 64
-53 78 -38 40z"/>
<path d="M5900 2742 c0 -9 62 -67 119 -110 51 -39 35 -21 -44 51 -41 38 -75
64 -75 59z"/>
<path d="M5187 2634 c-11 -11 13 -44 46 -64 37 -23 84 -25 111 -5 28 21 13 45
-29 45 -24 0 -35 4 -35 15 0 11 -11 15 -43 15 -24 0 -47 -3 -50 -6z"/>
<path d="M5840 2586 c0 -22 59 -66 88 -66 26 0 61 35 48 47 -3 3 -29 8 -57 11
-33 3 -46 8 -37 13 9 6 4 9 -14 9 -18 0 -28 -5 -28 -14z"/>
<path d="M4066 2302 c-37 -12 -51 -13 -54 -4 -2 7 -8 12 -14 12 -7 0 -7 -4 0
-13 9 -10 1 -24 -34 -58 -25 -24 -60 -69 -78 -99 -37 -63 -99 -213 -104 -250
-1 -14 -9 -46 -18 -71 -8 -25 -16 -56 -19 -68 -14 -72 -57 -188 -76 -205 -24
-20 -64 -18 -131 7 -26 10 -42 14 -52 15 -5 0 -30 41 -55 90 -64 123 -91 156
-158 189 -58 28 -59 28 -253 27 -116 0 -205 -5 -220 -11 l-25 -11 25 -5 c14
-3 95 -11 181 -17 162 -11 276 -35 309 -65 11 -10 26 -39 35 -65 18 -56 10
-90 -30 -116 -24 -16 -29 -16 -88 1 -34 11 -102 38 -151 62 -119 57 -176 66
-351 51 -77 -7 -158 -11 -180 -11 -22 1 -136 5 -253 9 -208 6 -213 7 -231 30
l-19 24 -488 1 c-269 1 -494 1 -501 0 -6 0 -15 -10 -18 -21 -6 -18 -15 -20
-109 -20 -134 0 -210 -15 -271 -52 -121 -75 -236 -16 -219 112 6 46 10 53 45
71 22 11 39 23 39 28 0 13 -93 24 -129 16 -16 -3 -37 -15 -47 -27 -18 -19 -19
-42 -19 -302 0 -189 4 -298 12 -334 52 -220 182 -387 373 -480 41 -20 76 -37
78 -38 2 -1 -8 -13 -22 -27 -33 -33 -32 -42 2 -76 49 -50 145 -66 382 -66 261
1 1400 22 1670 31 139 5 276 2 425 -7 407 -26 712 -8 958 56 53 14 139 36 190
49 54 14 153 29 233 36 76 6 225 18 329 26 105 9 386 19 625 23 411 8 439 9
505 30 104 33 138 60 174 133 43 89 70 202 83 353 6 72 23 184 39 250 15 66
31 149 34 185 3 36 8 90 11 121 4 48 2 57 -13 61 -24 6 -69 184 -51 205 8 10
7 12 -4 8 -10 -4 -19 4 -28 24 -18 45 -69 90 -109 97 -46 9 -128 -19 -155 -54
-12 -13 -30 -41 -42 -61 -11 -20 -31 -41 -44 -48 -13 -7 -28 -21 -32 -33 -9
-24 -28 -18 -28 9 0 10 -3 20 -6 24 -8 8 -34 -18 -34 -34 0 -8 -5 -5 -13 5
-10 13 -20 16 -36 11 -17 -5 -20 -10 -11 -20 8 -10 7 -14 -7 -18 -12 -3 -9 -5
9 -6 15 0 29 -5 33 -10 3 -6 -9 -8 -27 -7 -18 2 -26 2 -18 -1 8 -2 26 -12 39
-22 l24 -18 -19 -39 -19 -38 -130 -17 c-71 -10 -245 -32 -385 -49 -140 -17
-307 -37 -370 -45 -119 -15 -263 -28 -315 -29 -21 -1 -31 4 -33 17 -5 24 18
78 29 71 5 -3 9 2 9 10 0 37 112 90 248 116 55 11 62 15 62 36 0 16 6 24 18
25 14 0 14 2 -3 9 -17 7 -17 9 -2 9 24 1 21 28 -4 34 -11 3 -75 5 -142 5 -67
0 -130 1 -139 1 -15 1 -18 11 -18 56 0 30 -4 55 -10 55 -5 0 -10 -20 -10 -44
0 -49 -9 -59 -52 -60 -18 -1 -28 4 -29 14 -2 35 -18 -48 -21 -107 -1 -35 -6
-67 -10 -69 -9 -6 -55 93 -75 161 -17 57 -68 161 -91 188 -8 9 -23 17 -34 17
-10 0 -18 4 -18 8 0 11 -119 52 -150 51 -14 0 -47 -8 -74 -17z m-74 -393 c117
-25 217 -96 289 -206 67 -103 90 -176 96 -304 12 -249 -93 -457 -276 -542 -56
-27 -78 -32 -146 -32 -95 0 -157 19 -234 73 -68 47 -139 128 -125 142 7 7 24
-6 52 -39 23 -27 42 -54 42 -60 0 -6 7 -11 15 -11 8 0 15 -7 15 -15 0 -8 2
-15 4 -15 2 0 12 -3 20 -6 13 -5 28 18 70 107 29 63 66 147 81 187 28 71 45
91 45 52 0 -11 5 -20 11 -20 6 0 9 9 6 20 -3 11 -2 20 3 20 11 0 150 -148 209
-223 55 -69 67 -78 78 -51 9 23 -19 67 -133 209 -57 72 -104 134 -104 138 0 5
9 5 20 2 11 -4 20 -2 20 4 0 6 -7 11 -15 11 -34 0 -10 22 83 76 180 105 233
150 204 168 -5 3 -81 -28 -170 -69 -89 -41 -164 -75 -167 -75 -3 0 -1 9 5 21
15 27 2 40 -15 15 -16 -21 -17 -19 -35 166 -13 140 -39 243 -60 243 -9 0 -14
-8 -12 -20 6 -39 12 -420 6 -407 -6 13 -34 17 -34 4 0 -4 5 -13 12 -20 20 -20
5 -21 -70 -5 -91 20 -100 44 -13 36 85 -8 91 4 90 177 0 74 -4 155 -7 180 -7
42 -9 45 -35 42 -46 -5 -30 15 21 26 66 14 93 14 154 1z m2184 -91 c10 -13 12
-17 4 -10 -8 6 -18 12 -22 12 -14 0 -9 -50 8 -76 13 -20 14 -24 3 -22 -8 2
-19 21 -25 43 -10 38 -11 35 -12 -44 -1 -46 -4 -86 -7 -89 -3 -3 -5 18 -5 46
0 29 -4 52 -9 52 -5 0 -19 -16 -31 -36 -12 -19 -24 -33 -27 -30 -8 8 27 66 47
79 20 12 30 77 12 77 -10 0 -45 -38 -60 -65 -8 -14 -11 -16 -12 -5 0 18 26 59
48 78 25 19 67 14 88 -10z m-2336 -38 c0 -11 -60 -44 -67 -36 -8 8 8 27 31 36
28 12 36 12 36 0z m2271 -254 c-6 -39 -9 -88 -7 -108 2 -21 0 -38 -6 -38 -5 0
-6 5 -3 10 3 6 -1 10 -9 10 -13 0 -14 5 -6 26 13 33 2 52 -52 98 -24 20 -38
36 -31 36 6 0 25 -12 42 -26 42 -35 59 -26 67 38 4 29 9 47 12 39 2 -7 -1 -45
-7 -85z m-5104 33 c-10 -6 -28 -8 -40 -5 -12 3 -67 2 -123 -3 -74 -5 -113 -14
-150 -32 -27 -13 -52 -24 -55 -24 -8 0 -48 -49 -88 -107 -38 -58 -59 -70 -102
-61 l-32 6 27 24 c16 13 41 27 58 30 20 4 42 23 72 62 24 31 51 63 60 70 14
12 16 11 10 -5 -7 -18 -6 -18 12 -2 51 45 104 58 239 57 96 0 125 -2 112 -10z
m1422 -25 c30 -10 56 -24 59 -31 2 -8 -16 -6 -55 8 -42 15 -101 23 -218 30
-219 13 -224 18 -15 15 141 -2 185 -6 229 -22z m3818 -5 c-26 -15 -93 -42 -85
-34 12 12 73 43 88 43 11 1 11 -1 -3 -9z m-216 -61 l22 -33 -31 29 c-34 32
-37 36 -23 36 5 0 20 -15 32 -32z m-2075 -36 c20 -13 38 -56 25 -60 -6 -2 -11
-10 -11 -18 0 -9 -4 -13 -10 -9 -5 3 -7 12 -4 20 6 16 -12 55 -26 55 -6 0 -5
-11 1 -27 7 -20 6 -28 -3 -35 -22 -13 -25 -9 -21 25 4 31 4 31 -12 12 -10 -13
-14 -29 -10 -45 6 -24 6 -24 -14 -6 -23 21 -20 62 7 84 17 13 61 16 78 4z
m-168 -67 c56 -16 62 -20 67 -49 7 -35 -62 -244 -109 -331 -15 -27 -24 -41
-20 -30 25 73 49 152 69 228 30 109 24 127 -52 162 -33 15 -52 29 -48 35 4 6
12 9 19 7 7 -3 40 -13 74 -22z m2394 13 c-17 -17 -15 -50 9 -114 16 -42 24
-53 31 -43 7 10 8 7 4 -11 -3 -14 -6 -34 -6 -45 -1 -24 -71 150 -75 185 -3 33
2 40 28 40 16 0 18 -3 9 -12z m51 -23 c-7 -21 -13 -19 -13 6 0 11 4 18 10 14
5 -3 7 -12 3 -20z m-475 -7 c50 -13 55 -28 10 -28 -39 0 -684 -16 -1005 -25
-191 -6 -223 -5 -223 8 0 12 32 15 178 21 516 20 661 27 697 35 50 11 285 4
343 -11z m396 -110 c47 -102 54 -136 11 -55 -20 37 -40 65 -45 62 -6 -4 -10 9
-10 29 0 20 3 36 6 36 3 0 20 -33 38 -72z m121 10 c-24 -200 -85 -322 -148
-299 -30 11 -25 24 13 34 16 4 36 16 43 27 6 11 17 20 24 20 7 0 12 3 11 8 0
4 1 14 5 22 3 8 8 29 10 45 9 60 40 195 44 195 3 0 2 -24 -2 -52z m-5777 14
l117 4 -60 -19 c-89 -28 -203 -14 -219 28 -5 13 -2 13 19 -1 21 -14 46 -16
143 -12z m2815 6 c-40 -6 -121 -6 -220 0 l-158 9 220 0 c176 0 208 -1 158 -9z
m-556 -54 c-3 -3 -12 -4 -19 -1 -8 3 -5 6 6 6 11 1 17 -2 13 -5z m573 -4 c-40
-10 -234 -14 -360 -9 -74 3 29 8 350 16 44 1 45 1 10 -7z m408 -156 c-7 -6
-68 79 -68 95 0 9 16 -8 36 -37 20 -30 34 -55 32 -58z m2442 38 c0 -14 -39
-32 -56 -25 -13 5 -9 9 17 18 19 7 35 13 37 14 1 0 2 -2 2 -7z m-4930 -51 c0
-5 -12 -16 -26 -26 -22 -14 -28 -15 -35 -4 -17 27 -9 39 26 39 19 0 35 -4 35
-9z m582 -52 c51 -26 68 -29 155 -30 l98 -1 -170 -23 c-93 -13 -205 -28 -248
-35 -44 -6 -81 -9 -84 -6 -3 3 5 20 19 38 14 18 35 52 46 75 l22 42 52 -16
c29 -8 79 -28 110 -44z m-692 26 c19 -21 22 -30 14 -43 -26 -40 -134 -44 -192
-6 -31 20 -16 39 47 58 71 22 104 20 131 -9z"/>
<path d="M3920 1882 c0 -48 17 -69 65 -81 26 -7 69 -23 95 -36 71 -36 182
-165 142 -165 -5 0 -15 12 -23 26 -35 67 -167 154 -231 154 -23 0 -23 -20 -2
-147 18 -107 26 -123 58 -123 23 0 171 57 238 91 44 23 46 31 15 82 -65 108
-195 198 -305 213 -48 6 -52 5 -52 -14z"/>
<path d="M4304 1518 c-16 -13 -42 -32 -59 -42 -16 -10 -60 -41 -97 -69 -54
-41 -68 -56 -68 -77 0 -31 109 -205 121 -193 11 12 49 129 50 155 0 13 5 32
10 43 21 45 -3 -101 -26 -159 -24 -60 -24 -60 -6 -102 10 -23 24 -45 31 -49 8
-5 11 -4 7 2 -4 6 4 30 17 54 14 24 32 71 41 104 19 71 32 314 18 339 -9 16
-12 16 -39 -6z m-15 -81 c-1 -31 -1 -31 -9 -7 -11 36 -11 52 0 45 6 -3 10 -21
9 -38z"/>
<path d="M3944 1192 c-15 -10 -109 -190 -103 -197 3 -2 28 -9 55 -14 59 -11
133 1 182 29 42 25 54 20 15 -7 -62 -44 -152 -55 -226 -29 l-38 14 -29 -46
c-15 -25 -26 -51 -23 -58 10 -26 95 -49 178 -49 64 1 91 6 135 26 65 30 120
74 120 96 0 19 -223 243 -241 243 -8 0 -19 -4 -25 -8z"/>
<path d="M3825 1310 c4 -6 11 -8 16 -5 14 9 11 15 -7 15 -8 0 -12 -5 -9 -10z"/>
<path d="M5402 2129 c-14 -82 -16 -159 -3 -159 9 0 27 217 19 225 -2 3 -9 -27
-16 -66z"/>
<path d="M5008 1983 c7 -3 16 -2 19 1 4 3 -2 6 -13 5 -11 0 -14 -3 -6 -6z"/>
<path d="M4950 1951 c0 -4 11 -6 25 -3 14 2 25 6 25 8 0 2 -11 4 -25 4 -14 0
-25 -4 -25 -9z"/>
</g>
</svg>
