<?xml version="1.0" standalone="no"?>
<!DOCTYPE svg PUBLIC "-//W3C//DTD SVG 20010904//EN"
 "http://www.w3.org/TR/2001/REC-SVG-20010904/DTD/svg10.dtd">
<svg version="1.0" xmlns="http://www.w3.org/2000/svg"
 width="469.000000pt" height="254.000000pt" viewBox="0 0 469.000000 254.000000"
 preserveAspectRatio="xMidYMid meet">

<g transform="translate(0.000000,254.000000) scale(0.100000,-0.100000)"
fill="#000000" stroke="none">
<path d="M2660 2484 c-296 -11 -726 -51 -900 -85 -196 -37 -332 -122 -571
-356 -132 -128 -159 -149 -159 -120 0 22 -47 37 -108 36 -31 -1 -45 -4 -29 -6
33 -5 35 -25 5 -53 -15 -14 -31 -19 -48 -16 -24 5 -100 9 -127 7 -8 -1 -13
-16 -13 -39 0 -48 36 -89 87 -97 85 -15 92 -28 33 -56 -22 -11 -29 -18 -21
-24 8 -4 26 6 47 26 l35 34 377 4 c207 2 798 -2 1312 -9 793 -10 939 -14 958
-27 13 -8 26 -12 29 -9 7 6 76 -28 95 -48 15 -14 31 -19 56 -17 22 2 -4 37
-53 72 -25 18 -45 36 -45 41 0 13 34 10 73 -7 49 -20 234 -21 282 0 23 9 46
31 66 63 l30 49 97 22 c53 12 108 27 122 32 l25 10 -30 26 c-16 14 -23 22 -15
18 8 -4 3 3 -12 16 -14 13 -40 50 -56 81 -30 56 -60 101 -73 107 -4 2 -40 36
-80 75 -41 40 -93 81 -116 92 -23 10 -43 24 -43 30 0 24 -151 75 -223 76 -23
0 -75 7 -117 15 -41 8 -115 18 -165 23 -103 9 -598 19 -725 14z m1415 -374 c3
-5 1 -10 -6 -10 -6 0 -9 -8 -6 -20 3 -11 0 -20 -6 -20 -8 0 -8 -3 -2 -8 6 -4
17 -16 25 -27 11 -16 11 -17 0 -7 -28 24 -30 11 -4 -28 15 -22 25 -43 22 -45
-7 -7 -46 10 -76 31 -21 15 -22 15 -16 0 3 -9 9 -16 13 -16 4 0 8 -11 9 -24 2
-23 0 -24 -24 -11 -14 7 -32 22 -40 33 -13 19 -11 23 26 49 22 15 40 36 40 45
0 22 21 68 31 68 4 0 11 -4 14 -10z m139 -193 c-20 -11 -21 -10 -29 38 l-7 40
26 -35 c23 -30 24 -35 10 -43z m-451 26 l-63 -4 20 -21 c10 -12 18 -24 16 -27
-2 -3 22 -6 55 -6 32 1 53 -3 46 -7 -7 -4 -49 -8 -93 -8 -81 0 -82 0 -94 29
-6 17 -9 35 -5 40 4 7 41 10 93 9 76 -2 79 -2 25 -5z m140 -10 c-7 -2 -21 -2
-30 0 -10 3 -4 5 12 5 17 0 24 -2 18 -5z m265 -15 c2 -10 -6 -17 -22 -20 -19
-4 -24 -1 -23 13 1 10 5 15 9 13 4 -3 8 0 8 6 0 17 24 6 28 -12z m-220 -35
c-10 -2 -26 -2 -35 0 -10 3 -2 5 17 5 19 0 27 -2 18 -5z"/>
<path d="M4536 1720 c4 -25 12 -62 19 -82 12 -36 12 -37 -14 -40 -20 -2 -32
-14 -49 -50 -21 -41 -26 -46 -38 -33 -8 7 -14 16 -14 20 0 14 -27 31 -67 44
-78 26 -188 10 -376 -52 -92 -31 -177 -62 -190 -68 -18 -9 -20 -9 -9 2 17 18
15 39 -3 39 -8 0 -15 7 -15 15 0 20 -30 19 -58 -1 -14 -10 -21 -22 -18 -31 5
-12 1 -14 -18 -9 -24 6 -43 -15 -30 -35 3 -5 3 -9 -1 -9 -3 0 -10 10 -15 23
-8 20 -9 19 -9 -10 -1 -36 -11 -42 -31 -18 -20 24 -32 17 -25 -15 4 -16 4 -30
2 -30 -3 0 -19 14 -37 30 -44 41 -79 40 -118 -5 -17 -19 -40 -61 -53 -94 -23
-65 -33 -71 -124 -85 -22 -4 -53 -9 -68 -12 -26 -5 -28 -4 -22 15 3 12 3 30 0
41 -5 17 -15 20 -63 19 -31 0 -111 -7 -177 -14 -97 -11 -106 -13 -48 -12 62 2
70 0 60 -13 -10 -12 -7 -12 13 1 15 10 61 19 113 24 l87 7 -1 -29 c-1 -23 -2
-24 -6 -5 -3 17 -11 22 -36 22 -18 0 -39 -5 -47 -11 -12 -9 -12 -10 3 -5 20 7
57 -9 57 -24 0 -6 -9 -10 -19 -10 -24 0 -36 -16 -19 -23 10 -4 10 -6 1 -6 -20
-1 -15 -19 6 -26 13 -4 27 1 39 13 12 12 52 24 115 35 54 10 109 22 122 27 19
7 23 6 19 -5 -3 -8 -9 -14 -12 -13 -4 0 -12 0 -19 -1 -12 -1 -54 -174 -74
-301 -13 -89 -37 -184 -38 -153 -1 16 -8 22 -28 25 -23 2 -29 8 -31 36 -5 49
-22 38 -23 -15 -1 -27 -1 -51 0 -55 0 -5 -5 -8 -11 -8 -33 -1 -39 -18 -45
-126 -3 -60 -7 -111 -9 -113 -2 -2 -4 61 -5 140 -1 193 -11 298 -29 309 -24
15 -36 11 -14 -4 18 -13 19 -31 22 -265 3 -224 2 -251 -12 -251 -9 0 -16 -5
-16 -11 0 -7 9 -9 21 -6 12 3 19 3 16 1 -3 -3 1 -21 9 -40 8 -19 11 -34 7 -34
-5 0 -46 -5 -92 -10 l-85 -10 -151 49 c-302 98 -472 135 -690 150 -437 31
-1569 46 -1665 22 -66 -16 -211 -75 -262 -108 -21 -13 -45 -23 -54 -23 -17 0
-17 11 2 84 5 21 3 26 -12 26 -18 0 -19 -7 -14 -96 4 -85 8 -98 29 -115 14
-11 39 -19 62 -19 33 0 40 -4 54 -34 25 -53 80 -112 126 -134 22 -11 56 -38
75 -60 63 -75 31 -72 903 -72 726 0 799 2 1141 25 277 20 434 25 650 24 157
-1 299 2 315 6 46 12 76 30 124 74 53 48 140 95 276 149 173 68 227 80 420 91
192 12 243 32 302 120 72 107 80 163 90 587 6 317 2 368 -38 487 -10 31 -19
72 -19 90 0 17 -9 50 -20 72 l-20 40 6 -45z m-926 -395 c0 -14 -2 -25 -4 -25
-2 0 -6 11 -8 25 -3 14 -1 25 3 25 5 0 9 -11 9 -25z m-195 -4 c-9 -8 -36 -10
-30 -2 2 4 11 8 20 8 8 0 13 -3 10 -6z m-98 -273 c-3 -8 -6 -5 -6 6 -1 11 2
17 5 13 3 -3 4 -12 1 -19z m-10 -55 c-3 -10 -5 -4 -5 12 0 17 2 24 5 18 2 -7
2 -21 0 -30z m918 -29 c8 -13 15 -41 15 -62 0 -38 -2 -40 -37 -46 -50 -8 -227
-94 -314 -151 -38 -26 -84 -67 -104 -95 -37 -50 -49 -61 -39 -37 3 8 -2 19
-10 26 -11 9 -13 18 -7 30 5 9 14 42 21 74 8 39 22 70 43 93 34 39 143 113
197 134 19 7 44 21 55 31 19 17 61 25 132 26 23 0 37 -7 48 -23z m-928 -26
c-3 -8 -6 -5 -6 6 -1 11 2 17 5 13 3 -3 4 -12 1 -19z m1228 -28 c3 -6 -1 -7
-9 -4 -18 7 -21 14 -7 14 6 0 13 -4 16 -10z m-1248 -117 c-3 -10 -5 -4 -5 12
0 17 2 24 5 18 2 -7 2 -21 0 -30z m370 -5 c-3 -8 -6 -5 -6 6 -1 11 2 17 5 13
3 -3 4 -12 1 -19z m-380 -105 c-2 -16 -4 -5 -4 22 0 28 2 40 4 28 2 -13 2 -35
0 -50z m381 -114 c-3 -8 -7 -3 -11 10 -4 17 -3 21 5 13 5 -5 8 -16 6 -23z
m-204 -24 l17 -30 -20 24 c-12 13 -21 28 -21 34 0 12 0 11 24 -28z m37 -52
c13 -16 12 -17 -3 -4 -10 7 -18 15 -18 17 0 8 8 3 21 -13z m-394 -25 c-3 -8
-6 -5 -6 6 -1 11 2 17 5 13 3 -3 4 -12 1 -19z m-2894 -80 c12 -6 51 -17 87
-24 36 -6 54 -12 40 -13 -27 -1 -210 36 -218 44 -11 11 70 4 91 -7z m3067 -43
c0 -8 -5 -15 -11 -15 -5 0 -7 -4 -4 -10 3 -5 1 -10 -4 -10 -6 0 -11 6 -11 13
0 7 -5 5 -10 -5 -14 -24 -178 -34 -240 -15 l-45 14 85 7 c47 4 114 13 150 21
88 17 90 17 90 0z m-2721 -11 c8 -7 -104 -3 -149 6 -32 6 -17 7 50 3 52 -3 97
-7 99 -9z m129 -11 c-21 -2 -57 -2 -80 0 -24 2 -7 4 37 4 44 0 63 -2 43 -4z
m190 -10 c-26 -2 -71 -2 -100 0 -29 2 -8 3 47 3 55 0 79 -1 53 -3z m1982 -2
c-8 -5 -69 -11 -135 -14 -100 -4 -109 -4 -50 4 39 5 75 11 80 13 20 9 120 5
105 -3z m-1717 -8 c-35 -2 -91 -2 -125 0 -35 2 -7 3 62 3 69 0 97 -1 63 -3z
m325 -10 c-43 -2 -113 -2 -155 0 -43 1 -8 3 77 3 85 0 120 -2 78 -3z m825 -10
c-111 -2 -295 -2 -410 0 -114 1 -23 2 202 2 226 0 319 -1 208 -2z"/>
<path d="M3075 310 c-3 -5 1 -10 10 -10 9 0 13 5 10 10 -3 6 -8 10 -10 10 -2
0 -7 -4 -10 -10z"/>
<path d="M4320 1681 c0 -27 32 -44 63 -32 39 15 41 37 3 37 -17 0 -39 4 -48 8
-14 6 -18 4 -18 -13z"/>
<path d="M3950 1588 c0 -44 72 -59 97 -19 9 15 6 17 -26 17 -20 0 -44 4 -53 8
-13 6 -18 4 -18 -6z"/>
<path d="M395 1425 c23 -7 61 -15 85 -18 29 -4 18 1 -30 13 -84 22 -116 25
-55 5z"/>
<path d="M160 1332 c0 -28 349 -81 565 -87 l160 -4 -135 9 c-248 17 -490 53
-572 85 -10 4 -18 3 -18 -3z"/>
<path d="M2490 1248 c-85 -4 -258 -12 -385 -17 l-230 -9 215 1 c195 1 620 20
673 30 36 7 -108 5 -273 -5z"/>
<path d="M3008 1253 c7 -3 16 -2 19 1 4 3 -2 6 -13 5 -11 0 -14 -3 -6 -6z"/>
<path d="M943 1233 c26 -2 68 -2 95 0 26 2 4 3 -48 3 -52 0 -74 -1 -47 -3z"/>
<path d="M125 1220 c4 -6 11 -8 16 -5 14 9 11 15 -7 15 -8 0 -12 -5 -9 -10z"/>
<path d="M1248 1223 c18 -2 45 -2 60 0 15 2 0 4 -33 4 -33 0 -45 -2 -27 -4z"/>
<path d="M130 1196 c0 -6 10 -20 22 -33 22 -24 13 -33 -11 -10 -11 10 -13 9
-7 -1 4 -6 21 -19 38 -28 16 -9 27 -11 24 -5 -10 15 -7 15 101 -15 51 -14 99
-24 106 -21 6 2 -28 13 -77 26 -94 23 -163 54 -183 80 -7 9 -13 12 -13 7z"/>
<path d="M258 1143 c7 -3 16 -2 19 1 4 3 -2 6 -13 5 -11 0 -14 -3 -6 -6z"/>
<path d="M585 1125 c29 -15 26 -15 -57 -10 -104 6 -139 -2 -87 -21 l34 -12
-30 -2 -30 -1 37 -13 c20 -7 44 -21 53 -30 9 -9 33 -17 53 -17 20 -1 53 -3 72
-4 19 -2 109 -9 200 -15 100 -8 403 -13 770 -13 629 -2 794 6 826 37 8 9 22
16 30 16 8 0 14 4 14 9 0 5 11 11 25 13 14 3 25 1 25 -3 0 -12 81 -11 99 0 11
7 10 10 -5 14 -26 7 -196 3 -210 -5 -6 -4 -18 2 -27 13 -9 10 -25 20 -34 20
-10 1 -2 5 17 9 19 5 -68 5 -195 1 -484 -13 -1487 2 -1590 24 -11 3 -6 -2 10
-10z"/>
<path d="M2666 1072 c-2 -4 6 -9 19 -10 13 -1 27 3 30 8 3 6 -5 10 -19 10 -14
0 -27 -4 -30 -8z"/>
<path d="M66 1054 c-3 -9 -6 -30 -6 -47 l0 -32 15 29 c17 32 20 66 6 66 -5 0
-12 -7 -15 -16z"/>
<path d="M112 1015 c4 -4 3 -14 -3 -22 -9 -10 -4 -28 21 -74 25 -47 33 -74 34
-120 0 -32 4 -59 9 -59 4 0 7 8 7 18 0 12 2 14 8 4 13 -19 82 -28 83 -11 0 8
5 3 10 -11 6 -14 13 -20 17 -15 12 18 69 17 251 -1 132 -13 179 -22 189 -33
11 -14 13 -14 25 -1 9 12 24 14 62 9 28 -3 95 -7 150 -8 55 -1 123 -4 150 -6
28 -1 203 -6 390 -10 187 -5 342 -12 343 -16 6 -14 42 -10 42 4 0 9 72 12 328
12 180 0 333 -4 339 -8 7 -4 21 -4 30 1 10 5 54 10 98 11 44 1 98 7 120 13 42
11 65 16 78 17 4 1 7 8 7 17 0 8 4 13 9 10 4 -3 14 13 20 35 7 23 14 39 17 37
2 -2 -1 -20 -6 -39 -14 -48 1 -116 49 -229 l41 -95 -5 195 c-3 107 -8 217 -11
243 -5 41 -8 46 -19 31 -10 -15 -11 -13 -7 14 l4 32 -73 0 c-41 0 -128 -5
-193 -10 -66 -6 -180 -12 -254 -15 -74 -3 -139 -8 -145 -12 -5 -3 -41 -7 -81
-8 -199 -7 -382 -17 -394 -21 -20 -6 -754 -5 -897 2 -478 22 -624 38 -647 68
-5 8 -96 31 -154 40 -11 2 -27 7 -35 11 -8 5 -11 5 -7 0z"/>
<path d="M46 838 c-3 -73 -2 -171 3 -218 7 -72 8 -53 10 133 0 119 -1 217 -3
217 -2 0 -7 -60 -10 -132z"/>
<path d="M91 775 l0 -180 20 49 c47 115 46 209 -1 281 l-20 30 1 -180z"/>
</g>
</svg>
